<svg id="Layer_1" data-name="Layer 1" xmlns="http://www.w3.org/2000/svg" viewBox="0 0 128 128"><defs><style>.cls-1{fill:#cfd8dc;}</style></defs><title>menuBurgerArrows</title><path class="cls-1" d="M115.07,96a7.79,7.79,0,0,0-.61-3.07l0-.06a5,5,0,0,0-.29-.62,3.26,3.26,0,0,0-.24-.4l-.14-.25a8.62,8.62,0,0,0-1-1.24h0L72.18,49.8a11.66,11.66,0,0,0-16.5,0L15.11,90.37A7.92,7.92,0,0,0,12.8,96h0c0,.13,0,.25,0,.38s0,.25,0,.37a7.87,7.87,0,0,0,7.22,7.15c.22,0,.43,0,.65,0h86.83A7.49,7.49,0,0,0,115.07,96ZM88,88.06H39.86L63.93,64Z"/></svg>