<svg id="e0f89f92-eeca-4e77-ab90-1acf2394821c" fill = "#607D8B" xmlns="http://www.w3.org/2000/svg" viewBox="0 0 128 128"><title>js</title><path d="M17.85,60.82c5.17-.15,5.7-2.85,5.7-5.1a55,55,0,0,0-.45-5.84A53.51,53.51,0,0,1,22.72,44c0-7,4.42-10.12,11.39-10.12h2.62v6.37H35.38c-3.37,0-4.57,2-4.57,5.32,0,1.35.23,2.7.38,4.27a49.1,49.1,0,0,1,.37,5.1c.08,5.69-2.25,7.79-6.37,8.69v.15c4.12.9,6.45,3.07,6.37,8.76a52.46,52.46,0,0,1-.37,5.25c-.15,1.5-.38,2.92-.38,4.19,0,3.3,1.13,5.4,4.57,5.4h1.35v6.29H34c-6.66,0-11.31-2.7-11.31-10.19a53.51,53.51,0,0,1,.38-5.92,55,55,0,0,0,.45-5.84c0-2.1-.53-5-5.7-5.1Z"/><path d="M54.41,94.16a134.37,134.37,0,0,0,5.47-21.28l11.46-.75A103.31,103.31,0,0,1,61.9,93.48Zm4.05-39.11c0-4,2.69-6.9,6.66-6.9s6.6,2.78,6.67,6.9a6.67,6.67,0,1,1-13.33,0Z"/><path d="M110.15,66.58c-5.1.15-5.69,3-5.69,5.1a55,55,0,0,0,.44,5.84,54.11,54.11,0,0,1,.45,5.92c0,7.49-4.64,10.19-11.38,10.19h-2.7V87.34h1.35c3.44-.08,4.57-2.1,4.57-5.4a28.31,28.31,0,0,0-.38-4.19,52.46,52.46,0,0,1-.37-5.25c-.08-5.69,2.25-7.86,6.44-8.76v-.15c-4.19-.9-6.52-3-6.44-8.69a49.1,49.1,0,0,1,.37-5.1,29.22,29.22,0,0,0,.38-4.27c0-3.29-1.2-5.24-4.57-5.32H91.27V33.84h2.62c7,0,11.46,3.08,11.46,10.12a54.11,54.11,0,0,1-.45,5.92,55,55,0,0,0-.44,5.84c0,2.25.59,5,5.69,5.1Z"/></svg>